# xmcd CD database file
#
# Track frame offsets:
#	150
#	20553
#	37250
#	54274
#	71466
#	95385
#	110764
#	126994
#	146164
#	163805
#	181827
#	200631
#	219261
#
# Disc length: 3185 seconds
#
# Revision: 0
# Processed by: cddbd v1.5.2PL0 Copyright (c) Steve Scherf et al.
# Submitted via: CDex 1.70beta2
#
DISCID=c30c6f0d
DTITLE=Tim McGraw - Let It Go
DYEAR=2006
DGENRE=Country
TTITLE0=Last Dollar (Fly Away)
TTITLE1=I'm Workin'
TTITLE2=Let It Go
TTITLE3=Whiskey and You
TTITLE4=Suspicions
TTITLE5=Kristofferson
TTITLE6=Put Your Lovin' On Me
TTITLE7=Nothin' to Die For
TTITLE8=Between the River and Me
TTITLE9=Train #10
TTITLE10=I Need You (With Faith Hill)
TTITLE11=Comin' Home
TTITLE12=Shotgun Rider
EXTD=YEAR: 2006
EXTT0=
EXTT1=
EXTT2=
EXTT3=
EXTT4=
EXTT5=
EXTT6=
EXTT7=
EXTT8=
EXTT9=
EXTT10=
EXTT11=
EXTT12=
PLAYORDER=
